<svg width="128" height="35" viewBox="0 0 128 35" fill="none" xmlns="http://www.w3.org/2000/svg">
<path fill-rule="evenodd" clip-rule="evenodd" d="M20.5702 16.1392C20.5367 12.4659 23.6201 10.6785 23.7619 10.5951C22.015 8.08384 19.3085 7.74116 18.3575 7.71338C16.0841 7.47757 13.8792 9.05486 12.7208 9.05486C11.5396 9.05486 9.75714 7.73689 7.83432 7.77536C5.36152 7.8124 3.04758 9.22513 1.77876 11.418C-0.840088 15.8898 1.11336 22.4612 3.62179 26.076C4.87707 27.8456 6.34323 29.8226 8.2632 29.7528C10.1411 29.6765 10.8429 28.5723 13.1091 28.5723C15.3546 28.5723 16.0136 29.7528 17.9713 29.7086C19.9875 29.6765 21.2556 27.9304 22.4667 26.1444C23.9172 24.1154 24.4999 22.1171 24.5227 22.0145C24.4757 21.9981 20.6087 20.5426 20.5702 16.1392ZM16.8721 5.33604C17.8823 4.0893 18.5733 2.39517 18.3817 0.674683C16.9198 0.7388 15.091 1.67207 14.0388 2.8903C13.1069 3.96463 12.2748 5.72431 12.49 7.37925C14.1321 7.50036 15.8184 6.56211 16.8721 5.33604ZM43.2536 23.1736L41.9535 19.2125C41.816 18.8079 41.5581 17.8547 41.1776 16.355H41.1313C40.9008 17.3108 40.6574 18.2634 40.4011 19.2125L39.1237 23.1736H43.2536ZM47.749 29.4984H45.1244L43.6868 25.043H38.6899L37.3199 29.4984H34.7645L39.7158 14.3296H42.7735L47.749 29.4984ZM57.9715 23.9843C57.9715 22.9192 57.7286 22.0415 57.2406 21.3512C56.7084 20.6302 55.9924 20.2705 55.0962 20.2705C54.4878 20.2705 53.9349 20.4707 53.4419 20.8668C52.9475 21.2657 52.6241 21.7858 52.473 22.4312C52.3961 22.7326 52.3583 22.9784 52.3583 23.1721V24.9959C52.3583 25.7917 52.6056 26.4635 53.1 27.0121C53.5944 27.5599 54.237 27.8335 55.0278 27.8335C55.9561 27.8335 56.6777 27.4801 57.195 26.7756C57.7122 26.0703 57.9715 25.1399 57.9715 23.9843ZM60.4813 23.8953C60.4813 25.7554 59.972 27.2258 58.9525 28.3051C58.0392 29.2662 56.9057 29.7464 55.5521 29.7464C54.0917 29.7464 53.0423 29.2284 52.4032 28.1933H52.3569V33.9553H49.8927V22.1612C49.8927 20.9921 49.862 19.7917 49.8015 18.5607H51.9687L52.1062 20.294H52.1525C52.9739 18.9881 54.2213 18.3363 55.8948 18.3363C57.2028 18.3363 58.2949 18.8456 59.1684 19.8658C60.0446 20.8867 60.4813 22.2296 60.4813 23.8953ZM70.7266 23.9843C70.7266 22.9192 70.483 22.0415 69.995 21.3512C69.4621 20.6302 68.7497 20.2705 67.8513 20.2705C67.2422 20.2705 66.6908 20.4707 66.1964 20.8668C65.702 21.2657 65.3792 21.7858 65.2275 22.4312C65.1527 22.7326 65.1135 22.9784 65.1135 23.1721V24.9959C65.1135 25.7917 65.3607 26.4635 65.853 27.0121C66.3481 27.5585 66.99 27.8335 67.7836 27.8335C68.7112 27.8335 69.4336 27.4801 69.9501 26.7756C70.468 26.0703 70.7266 25.1399 70.7266 23.9843ZM73.2372 23.8953C73.2372 25.7554 72.7271 27.2258 71.7069 28.3051C70.795 29.2662 69.6609 29.7464 68.308 29.7464C66.8475 29.7464 65.7974 29.2284 65.1591 28.1933H65.1135V33.9553H62.6492V22.1612C62.6492 20.9921 62.6186 19.7917 62.558 18.5607H64.7252L64.8627 20.294H64.909C65.7297 18.9881 66.9765 18.3363 68.6514 18.3363C69.9579 18.3363 71.0501 18.8456 71.9263 19.8658C72.7991 20.8867 73.2372 22.2296 73.2372 23.8953ZM87.4984 25.2446C87.4984 26.5348 87.0439 27.5849 86.132 28.3956C85.1303 29.2811 83.7354 29.7236 81.943 29.7236C80.288 29.7236 78.9608 29.4087 77.957 28.7782L78.5276 26.7528C79.6098 27.3982 80.7967 27.7217 82.0897 27.7217C83.0173 27.7217 83.7397 27.5143 84.259 27.1019C84.7755 26.6887 85.0334 26.1351 85.0334 25.4441C85.0334 24.8285 84.8204 24.3099 84.3944 23.8896C83.9698 23.4692 83.2616 23.0774 82.2721 22.7162C79.5791 21.7259 78.2341 20.2747 78.2341 18.3669C78.2341 17.1202 78.7057 16.0971 79.6497 15.3013C80.5901 14.5049 81.8461 14.1073 83.4155 14.1073C84.8147 14.1073 85.9774 14.3474 86.9057 14.8269L86.2894 16.8088C85.4224 16.3436 84.4428 16.1107 83.3457 16.1107C82.4794 16.1107 81.8019 16.3215 81.3167 16.7411C80.9064 17.1166 80.7005 17.5733 80.7005 18.1147C80.7005 18.7145 80.9356 19.2104 81.4065 19.6001C81.8169 19.9606 82.562 20.3503 83.6435 20.7706C84.9672 21.2964 85.9389 21.9105 86.5644 22.615C87.1871 23.3175 87.4977 24.1966 87.4977 25.2446H87.4984ZM95.6449 20.3845H92.9292V25.6948C92.9292 27.0456 93.4072 27.7202 94.3668 27.7202C94.8071 27.7202 95.1719 27.6832 95.4611 27.6077L95.5295 29.4528C95.0436 29.6324 94.4046 29.7221 93.6131 29.7221C92.6399 29.7221 91.8798 29.4293 91.3305 28.8444C90.7841 28.2588 90.5091 27.2757 90.5091 25.895V20.3823H88.8912V18.5585H90.5084V16.5552L92.9292 15.8357V18.5585H95.6449V20.3845ZM105.342 24.0185C105.342 23.0097 105.124 22.1448 104.681 21.4224C104.165 20.5497 103.426 20.1144 102.469 20.1144C101.479 20.1144 100.727 20.5504 100.21 21.4224C99.767 22.1456 99.549 23.024 99.549 24.0641C99.549 25.0729 99.767 25.9378 100.21 26.658C100.742 27.5314 101.487 27.9667 102.447 27.9667C103.387 27.9667 104.126 27.5222 104.659 26.6352C105.114 25.9 105.342 25.0259 105.342 24.0185ZM107.898 23.9401C107.898 25.6214 107.411 27.0014 106.438 28.0807C105.417 29.1921 104.063 29.7464 102.374 29.7464C100.747 29.7464 99.4514 29.2135 98.4853 28.1491C97.5193 27.0848 97.0363 25.7411 97.0363 24.1211C97.0363 22.4255 97.5335 21.0377 98.5309 19.9577C99.5254 18.8777 100.868 18.337 102.557 18.337C104.184 18.337 105.493 18.8691 106.482 19.9349C107.427 20.9694 107.898 22.3037 107.898 23.9394V23.9401ZM115.908 20.6979C115.651 20.6521 115.391 20.6294 115.131 20.6302C114.264 20.6302 113.594 20.953 113.122 21.5991C112.712 22.1691 112.506 22.89 112.506 23.7592V29.4984H110.044L110.067 22.0052C110.067 20.7442 110.036 19.5972 109.974 18.5614H112.12L112.211 20.6545H112.279C112.539 19.9349 112.949 19.3564 113.511 18.9219C114.06 18.5307 114.653 18.3363 115.292 18.3363C115.52 18.3363 115.725 18.3519 115.908 18.3804V20.6979ZM124.578 22.8815C124.594 22.1619 124.433 21.5393 124.1 21.0135C123.673 20.3374 123.017 20.0005 122.135 20.0005C121.33 20.0005 120.675 20.3296 120.175 20.9907C119.765 21.5165 119.52 22.1463 119.445 22.8808H124.578V22.8815ZM126.927 23.512C126.927 23.9473 126.899 24.3149 126.837 24.6141H119.445C119.474 25.6948 119.832 26.5212 120.518 27.0912C121.141 27.6005 121.946 27.8563 122.936 27.8563C124.03 27.8563 125.029 27.6839 125.926 27.3384L126.312 29.0254C125.263 29.4771 124.024 29.7022 122.594 29.7022C120.875 29.7022 119.525 29.2021 118.543 28.2047C117.562 27.2073 117.072 25.8679 117.072 24.1881C117.072 22.5388 117.528 21.1653 118.442 20.0703C119.399 18.9005 120.692 18.3156 122.319 18.3156C123.918 18.3156 125.128 18.8998 125.95 20.0696C126.6 20.9986 126.927 22.1477 126.927 23.512ZM41.1613 5.0297C41.1613 4.16055 40.9283 3.49372 40.461 3.02851C39.9943 2.56473 39.3125 2.33248 38.4142 2.33248C38.033 2.33248 37.7089 2.35742 37.4389 2.40942V7.98267C37.5885 8.00547 37.8606 8.01544 38.2574 8.01544C39.1836 8.01544 39.8996 7.76111 40.4033 7.25316C40.9076 6.74449 41.1613 6.00357 41.1613 5.03041V5.0297ZM42.4386 4.99693C42.4386 6.33912 42.0304 7.34862 41.2161 8.02684C40.461 8.65306 39.3888 8.96652 37.9995 8.96652C37.4077 8.97155 36.8161 8.94181 36.2278 8.87747V1.54597C36.9179 1.43956 37.6154 1.38787 38.3137 1.39138C39.6374 1.39138 40.6348 1.67492 41.3073 2.24272C42.061 2.88389 42.4386 3.8022 42.4386 4.99621V4.99693ZM47.9535 6.20804C47.9535 5.71219 47.8452 5.28688 47.6286 4.93281C47.375 4.50393 47.0131 4.28949 46.5429 4.28949C46.0563 4.28949 45.6858 4.50322 45.4315 4.9321C45.2149 5.28688 45.1074 5.71861 45.1074 6.22941C45.1074 6.72525 45.2156 7.15057 45.4322 7.50464C45.6944 7.93352 46.0591 8.14795 46.5308 8.14795C46.9938 8.14795 47.3565 7.92995 47.6172 7.49324C47.8416 7.13204 47.9535 6.70388 47.9535 6.20804ZM49.2102 6.16886C49.2102 6.99526 48.9708 7.67206 48.4921 8.20352C47.9905 8.74995 47.3258 9.02209 46.4966 9.02209C45.6965 9.02209 45.0596 8.76135 44.5844 8.23701C44.1107 7.71338 43.8742 7.05368 43.8742 6.25791C43.8742 5.4258 44.1178 4.74331 44.6079 4.21327C45.0981 3.68323 45.7564 3.41749 46.5863 3.41749C47.3864 3.41749 48.029 3.67824 48.5156 4.20115C48.9779 4.70982 49.2102 5.36667 49.2102 6.16886ZM58.2892 3.52649L56.5844 8.90027H55.4752L54.7685 6.5671C54.5927 5.99633 54.4467 5.41683 54.331 4.83093H54.309C54.2044 5.41934 54.0579 5.99953 53.8708 6.5671L53.1206 8.90027H51.9993L50.3963 3.52649H51.6409L52.2572 6.08123C52.4061 6.68536 52.5286 7.26099 52.6269 7.80528H52.6483C52.7388 7.35646 52.8884 6.78438 53.0985 6.09263L53.8715 3.52792H54.8582L55.5991 6.03777C55.7787 6.65045 55.924 7.23962 56.0359 7.8067H56.0693C56.1608 7.2108 56.2845 6.6203 56.4398 6.03777L57.1009 3.52792H58.2899V3.52649H58.2892ZM64.5678 8.90027H63.3567V5.82262C63.3567 4.87439 62.9919 4.39992 62.2595 4.39992C61.8998 4.39992 61.6091 4.52958 61.384 4.79104C61.1625 5.04636 61.0428 5.37426 61.0477 5.71219V8.89884H59.8366V5.06247C59.8366 4.59014 59.8216 4.07862 59.7924 3.52436H60.8568L60.9138 4.36501H60.9473C61.0883 4.10355 61.2985 3.88769 61.5742 3.716C61.9049 3.51441 62.2855 3.40974 62.6727 3.41393C63.1814 3.41393 63.6039 3.57565 63.9408 3.90051C64.359 4.29876 64.5678 4.8922 64.5678 5.68156V8.90027ZM66.6979 8.90027H67.9083V1.06153H66.6979V8.90027ZM73.7815 6.20804C73.7815 5.71219 73.6725 5.28688 73.4566 4.93281C73.2037 4.50393 72.8404 4.28949 72.3716 4.28949C71.8836 4.28949 71.5139 4.50322 71.2602 4.9321C71.0437 5.28688 70.9361 5.71861 70.9361 6.22941C70.9361 6.72525 71.0444 7.15057 71.2609 7.50464C71.5231 7.93352 71.8879 8.14795 72.3595 8.14795C72.8226 8.14795 73.1838 7.92995 73.4452 7.49324C73.6703 7.13204 73.7815 6.70388 73.7815 6.20804ZM75.0389 6.16886C75.0389 6.99526 74.7995 7.67206 74.3208 8.20352C73.8192 8.74995 73.1538 9.02209 72.3253 9.02209C71.5238 9.02209 70.8876 8.76135 70.4139 8.23701C69.9394 7.71338 69.7029 7.05368 69.7029 6.25791C69.7029 5.4258 69.9465 4.74331 70.4367 4.21327C70.9268 3.68323 71.5851 3.41749 72.4144 3.41749C73.2151 3.41749 73.8563 3.67824 74.3443 4.20115C74.8067 4.70982 75.0389 5.36667 75.0389 6.16886ZM79.6433 7.05297V6.22585C78.3068 6.20305 77.6392 6.56425 77.6392 7.30872C77.6392 7.58871 77.7155 7.79887 77.8715 7.9385C78.0275 8.07885 78.2263 8.14867 78.4628 8.14867C78.7285 8.14867 78.9772 8.06531 79.2037 7.90003C79.3405 7.80573 79.4521 7.67933 79.5287 7.53191C79.6054 7.38449 79.6447 7.22053 79.6433 7.05439V7.05297ZM80.9007 8.90098H79.8128L79.7231 8.28189H79.6889C79.317 8.77559 78.7869 9.0228 78.098 9.0228C77.5837 9.0228 77.1676 8.85966 76.8541 8.53622C76.5699 8.24199 76.4281 7.87581 76.4281 7.44195C76.4281 6.7851 76.7053 6.28498 77.2631 5.93874C77.8202 5.5918 78.6039 5.42224 79.6126 5.43008V5.32891C79.6126 4.62077 79.2365 4.26741 78.4813 4.26741C77.9442 4.26741 77.4697 4.40134 77.0615 4.66565L76.815 3.88128C77.3208 3.57209 77.9463 3.41749 78.6836 3.41749C80.1078 3.41749 80.8216 4.15841 80.8216 5.64024V7.61863C80.8216 8.15579 80.8487 8.58324 80.9 8.90027L80.9007 8.90098ZM86.5274 6.63406V5.73784C86.5274 5.58325 86.516 5.45786 86.4939 5.36168C86.4287 5.07989 86.2752 4.82629 86.0557 4.63787C85.8312 4.44368 85.5426 4.33962 85.2457 4.34578C84.7941 4.34578 84.4407 4.52174 84.18 4.87653C83.9228 5.2306 83.7917 5.6837 83.7917 6.23653C83.7917 6.76729 83.9156 7.1983 84.1643 7.53029C84.4264 7.88365 84.7798 8.06033 85.2229 8.06033C85.6205 8.06033 85.9382 7.91286 86.1797 7.61791C86.4134 7.34506 86.5274 7.01735 86.5274 6.63406ZM87.7827 8.89956H86.7076L86.6506 8.03753H86.6178C86.2745 8.69367 85.6896 9.02209 84.8681 9.02209C84.2113 9.02209 83.6642 8.76776 83.2317 8.2598C82.7979 7.75114 82.582 7.09144 82.582 6.2807C82.582 5.41155 82.8171 4.70626 83.288 4.16838C83.7439 3.66684 84.3039 3.41607 84.9693 3.41607C85.701 3.41607 86.2132 3.659 86.5046 4.14559H86.5274V1.06153H87.7399V7.45335C87.7399 7.97626 87.7542 8.45857 87.7827 8.90098V8.89956ZM96.8859 6.20804C96.8859 5.71219 96.7776 5.28688 96.5611 4.93281C96.306 4.50393 95.9455 4.28949 95.4739 4.28949C94.9881 4.28949 94.619 4.50322 94.3625 4.9321C94.146 5.28688 94.0384 5.71861 94.0384 6.22941C94.0384 6.72525 94.1467 7.15057 94.3633 7.50464C94.6254 7.93352 94.9902 8.14795 95.4625 8.14795C95.9242 8.14795 96.2889 7.92995 96.5497 7.49324C96.7727 7.13204 96.8859 6.70388 96.8859 6.20804ZM98.1412 6.16886C98.1412 6.99526 97.9018 7.67206 97.4231 8.20352C96.9216 8.74995 96.2583 9.02209 95.4276 9.02209C94.629 9.02209 93.9921 8.76135 93.5162 8.23701C93.0424 7.71338 92.8052 7.05368 92.8052 6.25791C92.8052 5.4258 93.0489 4.74331 93.539 4.21327C94.0291 3.68323 94.6881 3.41749 95.5188 3.41749C96.3174 3.41749 96.9615 3.67824 97.4466 4.20115C97.909 4.70982 98.1412 5.36667 98.1412 6.16886ZM104.654 8.90027H103.443V5.82262C103.443 4.87439 103.078 4.39992 102.344 4.39992C101.985 4.39992 101.695 4.52958 101.47 4.79104C101.248 5.04608 101.129 5.37417 101.134 5.71219V8.89884H99.9223V5.06247C99.9223 4.59014 99.908 4.07862 99.8795 3.52436H100.942L100.999 4.36501H101.033C101.175 4.10355 101.385 3.88769 101.66 3.716C101.991 3.51453 102.372 3.40988 102.759 3.41393C103.266 3.41393 103.69 3.57565 104.026 3.90051C104.446 4.29876 104.653 4.8922 104.653 5.68156V8.90027H104.654ZM112.804 4.42129H111.471V7.03159C111.471 7.69557 111.708 8.02684 112.177 8.02684C112.395 8.02684 112.575 8.00903 112.717 7.97127L112.748 8.87747C112.509 8.96652 112.194 9.01069 111.808 9.01069C111.329 9.01069 110.957 8.86679 110.688 8.57968C110.417 8.29258 110.283 7.80956 110.283 7.13133V4.42129H109.486V3.52649H110.283V2.54193L111.47 2.18857V3.52578H112.804V4.42129H112.805H112.804ZM119.216 8.90027H118.004V5.84542C118.004 4.88223 117.639 4.39992 116.907 4.39992C116.346 4.39992 115.962 4.67919 115.751 5.23772C115.712 5.37735 115.692 5.5221 115.695 5.66731V8.89884H114.486V1.06153H115.696V4.29947H115.719C116.101 3.7103 116.647 3.41607 117.355 3.41607C117.857 3.41607 118.272 3.57779 118.602 3.90265C119.012 4.30731 119.217 4.9093 119.217 5.70507V8.90027H119.216ZM124.675 5.65021C124.684 5.29614 124.605 4.99051 124.44 4.73262C124.23 4.40134 123.91 4.23464 123.476 4.23464C123.081 4.23464 122.759 4.39636 122.512 4.72122C122.307 4.99063 122.183 5.31279 122.153 5.65021H124.675H124.675ZM125.831 5.9594C125.831 6.17313 125.814 6.35337 125.785 6.50084H122.153C122.169 7.03159 122.343 7.43625 122.679 7.71694C122.986 7.96771 123.383 8.0931 123.869 8.0931C124.405 8.0931 124.895 8.00903 125.337 7.83876L125.527 8.66873C125.01 8.88958 124.402 9.00072 123.699 9.00072C122.854 9.00072 122.19 8.75565 121.709 8.2655C121.226 7.77536 120.987 7.11708 120.987 6.2921C120.987 5.48137 121.21 4.80671 121.66 4.26883C122.129 3.69463 122.764 3.40681 123.565 3.40681C124.348 3.40681 124.943 3.69463 125.346 4.26883C125.67 4.72478 125.83 5.28902 125.83 5.9594" fill="white"/>
</svg>
