<svg width="106" height="27" viewBox="0 0 106 27" fill="none" xmlns="http://www.w3.org/2000/svg">
<path d="M16.598 26V21.104H6.46603V1.79202H0.754028V26H16.598Z" fill="white"/>
<path d="M18.7902 13.896C18.7902 21.58 24.2302 26.85 32.1862 26.85C40.1082 26.85 45.5822 21.58 45.5822 13.896C45.5822 6.24602 40.1082 0.942017 32.1862 0.942017C24.2302 0.942017 18.7902 6.24602 18.7902 13.896ZM24.5022 13.896C24.5022 9.17002 27.6642 5.83802 32.1862 5.83802C36.7082 5.83802 39.8702 9.17002 39.8702 13.896C39.8702 18.622 36.7082 21.954 32.1862 21.954C27.6642 21.92 24.5022 18.622 24.5022 13.896Z" fill="white"/>
<path d="M69.5111 16.004C69.3071 19.37 66.2131 21.954 62.3711 21.954C57.8151 21.954 54.5511 18.554 54.5511 13.896C54.5511 9.20402 57.7471 5.83802 62.2011 5.83802C65.0571 5.83802 67.6411 7.47002 68.4231 9.71402L73.6591 8.55802C72.4691 4.10402 67.7771 0.942017 62.2351 0.942017C54.4491 0.942017 48.8391 6.38202 48.8391 13.896C48.8391 21.41 54.4491 26.85 62.2351 26.85C70.3951 26.85 75.8011 20.73 75.0191 12.264H62.0311V16.004H69.5111Z" fill="white"/>
<path d="M78.3566 13.896C78.3566 21.58 83.7966 26.85 91.7526 26.85C99.6746 26.85 105.149 21.58 105.149 13.896C105.149 6.24602 99.6746 0.942017 91.7526 0.942017C83.7966 0.942017 78.3566 6.24602 78.3566 13.896ZM84.0686 13.896C84.0686 9.17002 87.2306 5.83802 91.7526 5.83802C96.2746 5.83802 99.4366 9.17002 99.4366 13.896C99.4366 18.622 96.2746 21.954 91.7526 21.954C87.2306 21.92 84.0686 18.622 84.0686 13.896Z" fill="white"/>
</svg>
