<svg width="136" height="33" viewBox="0 0 136 33" fill="none" xmlns="http://www.w3.org/2000/svg">
<path fill-rule="evenodd" clip-rule="evenodd" d="M0.958189 1.52232C0.611241 1.8714 0.495117 2.56815 0.495117 3.14948V28.6227C0.495117 29.2048 0.726653 29.7861 0.958189 30.2513L1.07431 30.3674L15.4281 16.0614V15.7123L0.958902 1.52161L0.958189 1.52232Z" fill="url(#paint0_linear_1_37)"/>
<path fill-rule="evenodd" clip-rule="evenodd" d="M20.174 20.7135L15.4279 15.9446V15.5955L20.174 10.8273L20.2894 10.9441L25.9617 14.2006C27.5824 15.131 27.5824 16.6435 25.9617 17.5739L20.174 20.7142V20.7135Z" fill="url(#paint1_linear_1_37)"/>
<path fill-rule="evenodd" clip-rule="evenodd" d="M20.2896 20.7134L15.3127 15.8284L0.958862 30.2499C1.65347 30.8319 2.69503 30.8319 3.38963 30.3667L20.2896 20.7134Z" fill="url(#paint2_linear_1_37)"/>
<path fill-rule="evenodd" clip-rule="evenodd" d="M20.2894 10.9435L3.27473 1.4056C2.57941 0.940386 1.53642 0.940386 0.842529 1.52243L15.3118 15.8292L20.2894 10.9442V10.9435Z" fill="url(#paint3_linear_1_37)"/>
<path fill-rule="evenodd" clip-rule="evenodd" d="M43.904 4.54587C43.904 5.36017 43.5564 6.29059 43.0933 6.87192C42.7589 7.20579 42.3618 7.4702 41.9248 7.64994C41.4878 7.82967 41.0196 7.92118 40.5471 7.91918C39.621 7.91918 38.5787 7.57009 38.0002 6.87192C37.1902 6.17375 36.8425 5.24404 36.8425 4.31291C36.8425 3.26637 37.1902 2.33595 37.8848 1.75462C38.5787 1.05645 39.5048 0.591238 40.431 0.707362C40.8941 0.707362 41.3571 0.823487 41.8202 1.05645C42.1671 1.28941 42.6302 1.40553 42.9779 1.87074L42.3987 2.21983C41.8765 1.6985 41.1688 1.40564 40.431 1.40553C39.621 1.40553 38.9264 1.75462 38.3472 2.33595C37.8276 2.86275 37.5366 3.57304 37.5371 4.31291C37.5371 5.01108 37.8848 5.82538 38.3472 6.29059C38.8695 6.81209 39.5775 7.10496 40.3156 7.10488C41.1256 7.10488 41.7048 6.7558 42.2833 6.29059C42.6302 5.82538 42.8618 5.24333 42.9779 4.77812H40.431V3.96454H43.7879C43.904 4.19679 43.904 4.42975 43.904 4.54587ZM49.2279 1.63849H46.1033V3.96454H48.8817V4.77812H46.1033V6.98876H49.2279V7.80234H45.1764V0.823487H49.2279V1.63849ZM52.9325 7.80234H52.0064V1.63849H50.0387V0.823487H54.7848V1.63849H52.8171V7.80305L52.9325 7.80234ZM58.3732 7.80234V0.823487H59.2994V7.68621C59.1833 7.80234 58.3732 7.80234 58.3732 7.80234ZM62.3086 7.80234V1.63849H60.3417V0.823487H65.0878V1.63849H63.1201C63.2355 1.63849 63.2355 7.80305 63.2355 7.80305H62.3094L62.3086 7.80234ZM74.2317 6.87192C72.8425 8.26826 70.6432 8.26826 69.0225 6.87192C68.3504 6.19031 67.9759 5.27012 67.9809 4.31291C67.9809 3.38249 68.3279 2.33595 69.0225 1.75462C70.5278 0.242153 72.7271 0.242153 74.2317 1.63778C74.9037 2.3194 75.2783 3.23958 75.2732 4.19679C75.2732 5.24404 74.9263 6.17446 74.2317 6.87192ZM69.7171 6.29059C70.7586 7.33784 72.4955 7.33784 73.4217 6.29059C73.9414 5.76361 74.2324 5.05304 74.2317 4.31291C74.2317 3.61474 73.884 2.91728 73.4217 2.33595C72.3794 1.2887 70.6432 1.2887 69.7171 2.33595C69.1976 2.86275 68.9065 3.57304 68.9071 4.31291C68.9071 5.01108 69.254 5.70925 69.7171 6.29059ZM76.547 7.80234V0.823487H77.704L81.0609 6.17375V0.823487H81.9871V7.68621H81.0609L77.4725 1.98687V7.56938L76.5463 7.80234H76.547Z" fill="white" stroke="white" stroke-width="0.560673"/>
<path fill-rule="evenodd" clip-rule="evenodd" d="M67.8648 17.8054C65.0864 17.8054 63.0033 20.0153 63.1194 22.8066C63.2348 25.5985 65.3186 27.6923 68.0963 27.5755C70.7586 27.5755 72.8425 25.3656 72.8425 22.6904C72.8425 20.0153 70.7586 17.8054 67.8648 17.8054ZM67.8648 25.7147C66.2448 25.8315 64.8555 24.552 64.7394 22.9234C64.624 21.2948 65.8971 19.8992 67.5179 19.7831C69.1386 19.6662 70.5278 20.9457 70.6432 22.5743V22.8073C70.7586 24.319 69.4856 25.7147 67.8648 25.7147ZM57.1002 17.8054C54.3217 17.8054 52.2379 20.0153 52.354 22.8066C52.354 25.5985 54.5533 27.6923 57.3317 27.5755C59.994 27.5755 62.0771 25.3656 62.0771 22.6904C62.0771 20.0153 59.8779 17.8054 57.1002 17.8054ZM57.1002 25.7147C55.4794 25.8315 54.0902 24.552 53.9748 22.9234C53.8587 21.2948 55.1317 19.8992 56.7532 19.7831C58.3733 19.6662 59.7625 20.9457 59.8779 22.5743V22.8073C59.8779 24.319 58.7202 25.7147 57.0994 25.7147H57.1002ZM44.251 19.3171V21.4117H49.3448C49.2286 22.4582 48.8817 23.3886 48.1864 24.0868C47.1448 25.1333 45.7556 25.7147 44.3671 25.5985C41.3571 25.4824 39.0418 22.8073 39.1579 19.7831C39.2733 16.9911 41.5887 14.5489 44.3671 14.5489C45.7563 14.5489 47.1455 15.0141 48.071 16.0607L49.5756 14.6651C48.1864 13.2687 46.2187 12.5713 44.3671 12.5713C40.1995 12.339 36.7271 15.7116 36.4949 19.8992C36.2641 24.0868 39.621 27.5755 43.7879 27.8085H44.3671C46.3348 27.9246 48.3025 27.1103 49.6917 25.7147C51.0809 23.97 51.7748 21.7607 51.4279 19.5501H44.251V19.3179V19.3171ZM96.804 20.9457C96.2255 19.0849 94.4886 17.9215 92.5209 17.8054C89.9747 17.8054 87.8902 19.7831 87.8902 22.4575V22.6904C87.7748 25.3656 89.8586 27.5755 92.5209 27.6916H92.7524C94.3732 27.6916 95.9939 26.878 96.9201 25.5985L95.1832 24.4352C94.7201 25.2495 93.794 25.7147 92.7524 25.7147C92.2463 25.716 91.7499 25.575 91.3201 25.3076C90.8903 25.0403 90.5443 24.6575 90.3217 24.2029L96.9194 21.4109L96.804 20.9457ZM90.0901 22.5743C89.9747 21.0626 91.1317 19.7831 92.637 19.7831H92.7524C93.5625 19.6662 94.2571 20.1322 94.6047 20.8303L90.0901 22.5743ZM84.6494 27.3433H86.7332V12.9203H84.6494V27.3433ZM81.1771 18.9688C80.3663 18.2706 79.4409 17.8054 78.3986 17.8054C75.6202 17.9215 73.6532 20.2483 73.7686 23.0395C73.884 25.5985 75.8524 27.5755 78.3993 27.6916C79.4409 27.6916 80.3663 27.3433 81.0609 26.529H81.1771V27.2271C81.4086 28.6228 80.4825 29.9023 79.0932 30.0184H78.6302C77.4725 30.0184 76.547 29.3202 76.084 28.2737L74.2317 29.088C74.9263 30.8327 76.6625 31.9961 78.6302 31.9961C81.1771 31.9961 83.2609 30.4836 83.2609 26.878V18.1545H81.1771V18.9688ZM78.6302 25.7154C77.0101 25.5985 75.8517 24.2029 75.8517 22.5743C75.9679 21.0626 77.1255 19.7831 78.6302 19.7831C80.1355 19.8992 81.4086 21.0626 81.2925 22.6904V22.8073C81.4086 24.4352 80.2509 25.7147 78.6302 25.7147V25.7154ZM106.875 12.9203H101.666V27.3433H103.749V21.8762H106.759C109.19 22.1091 111.273 20.1322 111.505 17.6893C111.736 15.2464 109.769 13.1533 107.337 12.9203H106.874H106.875ZM106.875 19.8992H103.865V14.898H106.875C108.264 14.898 109.422 16.0607 109.422 17.3402C109.422 18.7365 108.379 19.8992 106.875 19.8992ZM120.418 17.8054C118.798 17.6893 117.292 18.6197 116.598 20.0153L118.566 20.8296C118.913 20.1314 119.723 19.6662 120.534 19.7824C121.692 19.6662 122.733 20.4805 122.849 21.6439V21.76C122.155 21.4109 121.344 21.1787 120.534 21.2948C118.566 21.2948 116.366 22.4582 116.366 24.552C116.482 26.4128 117.987 27.8085 119.955 27.6923H120.071C121.229 27.8085 122.155 27.2271 122.849 26.296H122.965V27.4594H125.049V21.8762C124.817 19.3179 122.849 17.8054 120.418 17.8054ZM120.071 25.7147C119.261 25.8315 118.566 25.3656 118.335 24.552C118.335 23.3886 119.492 23.0395 120.65 23.0395C121.344 23.0395 122.039 23.2725 122.617 23.5047C122.502 24.7842 121.344 25.7147 120.071 25.7147ZM132.341 18.1545L129.794 24.319L127.248 18.1545H124.932L128.752 26.878L126.553 31.7631H128.868L134.888 18.1545H132.341ZM112.894 27.3433H114.978V12.9203H112.894V27.3433Z" fill="white"/>
<defs>
<linearGradient id="paint0_linear_1_37" x1="13.9608" y1="28.7731" x2="-8.98647" y2="22.6521" gradientUnits="userSpaceOnUse">
<stop stop-color="#4998D3"/>
<stop offset="0.01" stop-color="#4A99D3"/>
<stop offset="0.26" stop-color="#42BAEB"/>
<stop offset="0.51" stop-color="#41C7F2"/>
<stop offset="0.76" stop-color="#56C9E9"/>
<stop offset="1" stop-color="#5BCAE8"/>
</linearGradient>
<linearGradient id="paint1_linear_1_37" x1="27.9484" y1="15.8117" x2="-0.0630045" y2="15.8117" gradientUnits="userSpaceOnUse">
<stop stop-color="#FEE000"/>
<stop offset="0.41" stop-color="#FEBD11"/>
<stop offset="0.78" stop-color="#FAA51A"/>
<stop offset="1" stop-color="#F99B1C"/>
</linearGradient>
<linearGradient id="paint2_linear_1_37" x1="7.83868" y1="22.7037" x2="-10.5687" y2="-8.22421" gradientUnits="userSpaceOnUse">
<stop stop-color="#EF4149"/>
<stop offset="1" stop-color="#C31E63"/>
</linearGradient>
<linearGradient id="paint3_linear_1_37" x1="-12.3203" y1="29.046" x2="-4.29652" y2="15.1744" gradientUnits="userSpaceOnUse">
<stop stop-color="#32A072"/>
<stop offset="0.07" stop-color="#2CA772"/>
<stop offset="0.48" stop-color="#4BBA71"/>
<stop offset="0.8" stop-color="#5EBD6B"/>
<stop offset="1" stop-color="#66BE69"/>
</linearGradient>
</defs>
</svg>
