<svg width="134" height="17" viewBox="0 0 134 17" fill="none" xmlns="http://www.w3.org/2000/svg">
<path fill-rule="evenodd" clip-rule="evenodd" d="M49.0007 0.655273C46.828 0.655273 46.5553 0.664773 45.702 0.703607C44.8503 0.742607 44.269 0.87744 43.7603 1.07527C43.2342 1.27961 42.7878 1.55294 42.3432 1.99777C41.8982 2.44244 41.6248 2.88877 41.4198 3.41477C41.2215 3.92361 41.0865 4.50511 41.0482 5.35644C41.01 6.20977 41 6.48261 41 8.65527C41 10.8279 41.0097 11.0998 41.0483 11.9531C41.0875 12.8048 41.2223 13.3861 41.42 13.8948C41.6245 14.4209 41.8978 14.8673 42.3427 15.3119C42.7872 15.7569 43.2335 16.0309 43.7593 16.2353C44.2683 16.4331 44.8498 16.5679 45.7013 16.6069C46.5547 16.6458 46.8272 16.6553 48.9997 16.6553C51.1725 16.6553 51.4443 16.6458 52.2977 16.6069C53.1493 16.5679 53.7313 16.4331 54.2403 16.2353C54.7663 16.0309 55.212 15.7569 55.6565 15.3119C56.1015 14.8673 56.3748 14.4209 56.5798 13.8949C56.7765 13.3861 56.9115 12.8046 56.9515 11.9533C56.9898 11.0999 56.9998 10.8279 56.9998 8.65527C56.9998 6.48261 56.9898 6.20994 56.9515 5.35661C56.9115 4.50494 56.7765 3.92361 56.5798 3.41494C56.3748 2.88877 56.1015 2.44244 55.6565 1.99777C55.2115 1.55277 54.7665 1.27944 54.2398 1.07527C53.7298 0.87744 53.1482 0.742607 52.2965 0.703607C51.4432 0.664773 51.1715 0.655273 48.9982 0.655273H49.0007ZM48.2832 2.09694C48.4962 2.09661 48.7338 2.09694 49.0008 2.09694C51.1368 2.09694 51.39 2.10461 52.2335 2.14294C53.0135 2.17861 53.4368 2.30894 53.7188 2.41844C54.0922 2.56344 54.3583 2.73677 54.6382 3.01677C54.9182 3.29677 55.0915 3.56344 55.2368 3.93677C55.3463 4.21844 55.4768 4.64177 55.5123 5.42177C55.5507 6.26511 55.559 6.51844 55.559 8.65344C55.559 10.7884 55.5507 11.0418 55.5123 11.8851C55.4767 12.6651 55.3463 13.0884 55.2368 13.3701C55.0918 13.7434 54.9182 14.0093 54.6382 14.2891C54.3582 14.5691 54.0923 14.7424 53.7188 14.8874C53.4372 14.9974 53.0135 15.1274 52.2335 15.1631C51.3902 15.2014 51.1368 15.2098 49.0008 15.2098C46.8647 15.2098 46.6115 15.2014 45.7682 15.1631C44.9882 15.1271 44.5648 14.9968 44.2827 14.8873C43.9093 14.7423 43.6427 14.5689 43.3627 14.2889C43.0827 14.0089 42.9093 13.7429 42.764 13.3694C42.6545 13.0878 42.524 12.6644 42.4885 11.8844C42.4502 11.0411 42.4425 10.7878 42.4425 8.65144C42.4425 6.51511 42.4502 6.26311 42.4885 5.41977C42.5242 4.63977 42.6545 4.21644 42.764 3.93444C42.909 3.56111 43.0827 3.29444 43.3627 3.01444C43.6427 2.73444 43.9093 2.56111 44.2827 2.41577C44.5647 2.30577 44.9882 2.17577 45.7682 2.13994C46.5062 2.10661 46.7922 2.09661 48.2832 2.09494V2.09694ZM53.2712 3.42528C52.7412 3.42528 52.3112 3.85478 52.3112 4.38494C52.3112 4.91494 52.7412 5.34494 53.2712 5.34494C53.8012 5.34494 54.2312 4.91494 54.2312 4.38494C54.2312 3.85494 53.8012 3.42494 53.2712 3.42494V3.42528ZM49.0008 4.54692C46.7319 4.54692 44.8924 6.38643 44.8924 8.65526C44.8924 10.9241 46.7319 12.7628 49.0008 12.7628C51.2696 12.7628 53.1084 10.9241 53.1084 8.65526C53.1084 6.38643 51.2694 4.54692 49.0006 4.54692H49.0008ZM49.0007 5.98859C50.4734 5.98859 51.6674 7.18243 51.6674 8.65526C51.6674 10.1279 50.4734 11.3219 49.0007 11.3219C47.5279 11.3219 46.334 10.1279 46.334 8.65526C46.334 7.18243 47.5279 5.98859 49.0007 5.98859Z" fill="white"/>
<path fill-rule="evenodd" clip-rule="evenodd" d="M123.934 4.91152L123.976 5.60357L123.277 5.51883C120.731 5.19399 118.506 4.09237 116.618 2.24221L115.695 1.32419L115.457 2.00211C114.953 3.51331 115.275 5.10925 116.324 6.18263C116.884 6.77581 116.758 6.86055 115.793 6.50746C115.457 6.39448 115.163 6.30974 115.135 6.35211C115.037 6.45097 115.373 7.7362 115.639 8.24464C116.002 8.95081 116.744 9.64285 117.555 10.0524L118.241 10.3773L117.429 10.3914C116.646 10.3914 116.618 10.4055 116.702 10.7021C116.982 11.6201 118.087 12.5946 119.318 13.0183L120.185 13.3149L119.43 13.7669C118.311 14.4166 116.996 14.7838 115.681 14.812C115.051 14.8261 114.533 14.8826 114.533 14.925C114.533 15.0662 116.24 15.8571 117.233 16.1678C120.213 17.0859 123.753 16.6904 126.411 15.1227C128.299 14.007 130.188 11.7896 131.069 9.64285C131.545 8.49886 132.02 6.4086 132.02 5.40584C132.02 4.75617 132.062 4.67143 132.846 3.89464C133.307 3.44269 133.741 2.94838 133.825 2.80714C133.965 2.5388 133.951 2.5388 133.238 2.7789C132.048 3.2026 131.881 3.1461 132.468 2.51055C132.902 2.0586 133.419 1.23945 133.419 0.999351C133.419 0.95698 133.21 1.0276 132.972 1.15471C132.72 1.29594 132.16 1.50779 131.741 1.6349L130.985 1.875L130.3 1.40893C129.922 1.15471 129.39 0.87224 129.111 0.7875C128.397 0.589773 127.306 0.61802 126.662 0.843993C124.914 1.47955 123.809 3.11786 123.934 4.91152Z" fill="white"/>
<path fill-rule="evenodd" clip-rule="evenodd" d="M21.7957 3.15373C21.5397 2.17024 20.7853 1.39579 19.8275 1.13295C18.0916 0.655273 11.1304 0.655273 11.1304 0.655273C11.1304 0.655273 4.16923 0.655273 2.43327 1.13295C1.47542 1.39579 0.721075 2.17024 0.465075 3.15373C0 4.93618 0 8.65527 0 8.65527C0 8.65527 0 12.3742 0.465075 14.1568C0.721075 15.1403 1.47542 15.9148 2.43327 16.1777C4.16923 16.6553 11.1304 16.6553 11.1304 16.6553C11.1304 16.6553 18.0916 16.6553 19.8275 16.1777C20.7853 15.9148 21.5397 15.1403 21.7957 14.1568C22.2609 12.3742 22.2609 8.65527 22.2609 8.65527C22.2609 8.65527 22.2609 4.93618 21.7957 3.15373Z" fill="white"/>
<path fill-rule="evenodd" clip-rule="evenodd" d="M9.0437 12.4814V5.5249L14.6089 9.0033L9.0437 12.4814Z" fill="#533E2D"/>
<path fill-rule="evenodd" clip-rule="evenodd" d="M86.9643 16.6553V8.65434H89.1729L89.4656 5.89717H86.9643L86.968 4.51718C86.968 3.79807 87.0364 3.41275 88.0692 3.41275H89.4499V0.655273H87.241C84.5878 0.655273 83.6539 1.9928 83.6539 4.24209V5.89748H82V8.65465H83.6539V16.6553H86.9643Z" fill="white"/>
</svg>
